<?xml version="1.0" encoding="UTF-8" standalone="no"?>
<!-- Created with Inkscape (http://www.inkscape.org/) -->

<svg
   width="38.987282mm"
   height="35.770836mm"
   viewBox="0 0 38.987282 35.770836"
   version="1.1"
   id="svg1"
   xml:space="preserve"
   xmlns="http://www.w3.org/2000/svg"
   xmlns:svg="http://www.w3.org/2000/svg"><defs
     id="defs1" /><g
     id="layer1"
     transform="translate(127.28061,-18.2427)"><g
       style="fill:#1a1a1a"
       id="g2"
       transform="matrix(0.04873411,0,0,0.04873411,-131.17935,59.86163)"><path
         d="m 480,-120 -58,-52 c -67.33333,-60.66667 -123,-113 -167,-157 -44,-44 -79,-83.5 -105,-118.5 -26,-35 -44.16667,-67.16667 -54.5,-96.5 -10.333333,-29.33333 -15.5,-59.33333 -15.5,-90 0,-62.66667 21,-115 63,-157 42,-42 94.33333,-63 157,-63 34.66667,0 67.66667,7.33333 99,22 31.33333,14.66667 58.33333,35.33333 81,62 22.66667,-26.66667 49.66667,-47.33333 81,-62 31.33333,-14.66667 64.33333,-22 99,-22 62.66667,0 115,21 157,63 42,42 63,94.33333 63,157 0,30.66667 -5.16667,60.66667 -15.5,90 -10.33333,29.33333 -28.5,61.5 -54.5,96.5 -26,35 -61,74.5 -105,118.5 -44,44 -99.66667,96.33333 -167,157 z"
         id="path1"
         style="fill:#1a1a1a" /></g></g></svg>
