<?xml version="1.0" encoding="UTF-8" standalone="no"?>
<!-- Created with Inkscape (http://www.inkscape.org/) -->

<svg
   width="70.036942mm"
   height="82.821709mm"
   viewBox="0 0 70.036942 82.821709"
   version="1.1"
   id="svg1"
   xml:space="preserve"
   xmlns="http://www.w3.org/2000/svg"
   xmlns:svg="http://www.w3.org/2000/svg"><defs
     id="defs1" /><g
     id="layer1"
     transform="translate(-336.94722,44.738878)"><g
       id="g8"><g
         id="g7"
         transform="matrix(-1,0,0,1,743.93146,-2.3992174)"><path
           style="fill:#ff3f62;fill-opacity:1;stroke:none;stroke-width:0.4;stroke-opacity:1"
           d="m 380.41768,-2.88622 c 0,0 8.90263,0.1384033 13.15376,1.2955629 2.9565,0.804756 6.06264,1.8127884 8.34251,3.8598903 2.3427,2.1035129 4.39276,4.9842348 4.86302,8.0974048 0.39561,2.619014 -0.71299,5.34694 -1.8965,7.716548 -1.13488,2.272246 -2.76331,4.412968 -4.82328,5.898775 -1.90713,1.375572 -4.23985,2.5009 -6.59126,2.51381 -2.5455,0.01398 -5.03328,-1.251151 -7.16475,-2.642776 -2.65321,-1.732267 -4.93237,-4.147156 -6.59935,-6.841858 -2.3097,-3.733655 -5.36379,-13.5306933 -5.36379,-13.5306933 l 1.61572,-5.2851125 1.36638,-1.0674085 z"
           id="path6" /><path
           style="fill:#ff728b;fill-opacity:1;stroke:none;stroke-width:0.4;stroke-opacity:1"
           d="m 374.73872,-8.0517537 c 0,0 2.71681,-8.4790853 5.05822,-12.2112363 1.62836,-2.59557 3.49467,-5.275328 6.11545,-6.862762 2.69301,-1.631179 6.04479,-2.756705 9.16042,-2.302982 2.62107,0.381707 4.90971,2.234469 6.83371,4.054896 1.84495,1.745626 3.42076,3.925369 4.24459,6.327953 0.76271,2.224323 1.16241,4.783267 0.49216,7.037167 -0.72554,2.4399493 -2.6584,4.4533353 -4.60885,6.0890383 -2.42788,2.0360929 -5.4004,3.5160803 -8.46298,4.3290226 -4.24337,1.1263821 -14.50511,1.2049397 -14.50511,1.2049397 l -4.58848,-3.080376 -0.6248,-1.6174023 z"
           id="path7" /></g><path
         style="fill:#ff3f62;fill-opacity:1;stroke:none;stroke-width:0.4;stroke-opacity:1"
         d="m 368.3142,-12.320371 c 0,0 -5.18161,-7.240639 -6.7786,-11.346816 -1.11065,-2.855688 -2.14682,-5.952558 -1.85626,-9.002814 0.29857,-3.134299 1.39605,-6.495374 3.61968,-8.724373 1.87067,-1.87519 4.72322,-2.60563 7.33219,-3.062814 2.50177,-0.438399 5.19122,-0.40175 7.61063,0.37125 2.23991,0.71565 4.53163,1.92228 5.94,3.805314 1.52462,2.038455 1.98643,4.79097 2.13469,7.332186 0.18455,3.163262 -0.40216,6.431597 -1.57782,9.374063 -1.62894,4.076941 -7.69071,12.357297 -7.69071,12.357297 l -5.21021,1.8430155 -1.67063,-0.4640625 z"
         id="path2" /><path
         style="fill:#ff728b;fill-opacity:1;stroke:none;stroke-width:0.4;stroke-opacity:1"
         d="m 377.6656,5.6643166 c 0,0 5.18161,7.2406404 6.7786,11.3468204 1.11065,2.85569 2.14682,5.95256 1.85626,9.00281 -0.29857,3.1343 -1.39605,6.49538 -3.61968,8.72438 -1.87067,1.87519 -4.72322,2.60563 -7.33219,3.06281 -2.50177,0.4384 -5.19122,0.40175 -7.61063,-0.37125 -2.23991,-0.71565 -4.53163,-1.92228 -5.94,-3.80531 -1.52462,-2.03846 -1.98643,-4.79097 -2.13469,-7.33219 -0.18455,-3.16326 0.40216,-6.4316 1.57782,-9.37406 1.62894,-4.07694 7.69071,-12.3573004 7.69071,-12.3573004 l 5.21021,-1.84301 1.67063,0.46406 z"
         id="path3" /><path
         style="fill:#ff3f62;fill-opacity:1;stroke:none;stroke-width:0.4;stroke-opacity:1"
         d="m 380.41768,-2.88622 c 0,0 8.90263,0.1384033 13.15376,1.2955629 2.9565,0.804756 6.06264,1.8127884 8.34251,3.8598903 2.3427,2.1035129 4.39276,4.9842348 4.86302,8.0974048 0.39561,2.619014 -0.71299,5.34694 -1.8965,7.716548 -1.13488,2.272246 -2.76331,4.412968 -4.82328,5.898775 -1.90713,1.375572 -4.23985,2.5009 -6.59126,2.51381 -2.5455,0.01398 -5.03328,-1.251151 -7.16475,-2.642776 -2.65321,-1.732267 -4.93237,-4.147156 -6.59935,-6.841858 -2.3097,-3.733655 -5.36379,-13.5306933 -5.36379,-13.5306933 l 1.61572,-5.2851125 1.36638,-1.0674085 z"
         id="path4" /><path
         style="fill:#ff728b;fill-opacity:1;stroke:none;stroke-width:0.4;stroke-opacity:1"
         d="m 374.73872,-8.0517537 c 0,0 2.71681,-8.4790853 5.05822,-12.2112363 1.62836,-2.59557 3.49467,-5.275328 6.11545,-6.862762 2.69301,-1.631179 6.04479,-2.756705 9.16042,-2.302982 2.62107,0.381707 4.90971,2.234469 6.83371,4.054896 1.84495,1.745626 3.42076,3.925369 4.24459,6.327953 0.76271,2.224323 1.16241,4.783267 0.49216,7.037167 -0.72554,2.4399493 -2.6584,4.4533353 -4.60885,6.0890383 -2.42788,2.0360929 -5.4004,3.5160803 -8.46298,4.3290226 -4.24337,1.1263821 -14.50511,1.2049397 -14.50511,1.2049397 l -4.58848,-3.080376 -0.6248,-1.6174023 z"
         id="path5" /><circle
         style="fill:#ffeb99;fill-opacity:1;stroke:none;stroke-width:0.415817"
         id="path1"
         cx="372.98993"
         cy="-4.0858307"
         r="9.5517778" /></g></g></svg>
